<?xml version="1.0" encoding="utf-8"?>
<!-- Generator: Adobe Illustrator 23.0.2, SVG Export Plug-In . SVG Version: 6.00 Build 0)  -->
<svg version="1.1" id="Layer_1_copy_2" xmlns="http://www.w3.org/2000/svg" xmlns:xlink="http://www.w3.org/1999/xlink" x="0px"
	 y="0px" viewBox="0 0 2285 2308.67" style="enable-background:new 0 0 2285 2308.67;" xml:space="preserve">
<style type="text/css">
	.st0{fill:#83161C;}
	.st1{fill-rule:evenodd;clip-rule:evenodd;fill:#83161C;}
</style>
<path class="st0" d="M1144.32,88.32c587.8,0,1066.01,478.21,1066.01,1066.01s-478.21,1066.01-1066.01,1066.01
	S78.31,1742.14,78.31,1154.33S556.52,88.32,1144.32,88.32 M1144.32,48.84C533.79,48.84,38.83,543.8,38.83,1154.33
	s494.96,1105.49,1105.49,1105.49c610.54,0,1105.49-494.96,1105.49-1105.49S1754.86,48.84,1144.32,48.84L1144.32,48.84z"/>
<g>
	<polygon class="st1" points="1991.28,1129.4 1785.16,1203.81 1785.16,1438.81 1385.47,1584.09 1385.47,421.34 1173.42,550.42 
		1173.42,1887.39 1991.28,1566.99 	"/>
</g>
<g>
	<polygon class="st1" points="1614.44,897.39 1961.22,1101.51 1766.92,1172.54 1614.44,1089.7 	"/>
</g>
<g>
	<polygon class="st1" points="297.35,1129.4 503.47,1203.81 503.47,1438.81 903.15,1584.09 903.15,421.34 1115.21,550.42 
		1115.21,1887.39 297.35,1566.99 	"/>
</g>
<g>
	<polygon class="st1" points="674.18,897.39 327.41,1101.51 521.7,1172.54 674.18,1089.7 	"/>
</g>
</svg>
